<svg width="22" height="21" viewBox="0 0 22 21" fill="none" xmlns="http://www.w3.org/2000/svg">
<path d="M4.00003 12.0833C3.99678 13.1832 4.28802 14.2682 4.85003 15.25C5.51639 16.4265 6.54081 17.416 7.80854 18.1077C9.07627 18.7995 10.5372 19.1662 12.0278 19.1667C13.2743 19.1695 14.504 18.9126 15.6167 18.4167L21 20L19.2056 15.25C19.7676 14.2682 20.0588 13.1832 20.0556 12.0833C20.055 10.7681 19.6394 9.47906 18.8554 8.36048C18.0714 7.24189 16.95 6.33799 15.6167 5.75002C14.504 5.25413 13.2743 4.99716 12.0278 5.00002H11.5556C9.58702 5.09585 7.7277 5.82899 6.33361 7.05907C4.93952 8.28915 4.10863 9.92973 4.00003 11.6667V12.0833Z" fill="black" stroke="black" stroke-width="1.5" stroke-linecap="round" stroke-linejoin="round"/>
<path d="M18 8.08335C18.0032 9.18323 17.712 10.2682 17.15 11.25C16.4836 12.4265 15.4592 13.416 14.1915 14.1077C12.9237 14.7995 11.4628 15.1662 9.97221 15.1667C8.72567 15.1695 7.49599 14.9126 6.38332 14.4167L1 16L2.79444 11.25C2.23243 10.2682 1.94119 9.18323 1.94444 8.08335C1.94502 6.76815 2.36058 5.47906 3.14456 4.36048C3.92855 3.24189 5.05001 2.33799 6.38332 1.75002C7.49599 1.25413 8.72567 0.997156 9.97221 1.00002H10.4444C12.413 1.09585 14.2723 1.82899 15.6664 3.05907C17.0605 4.28915 17.8914 5.92973 18 7.66668V8.08335Z" fill="white" stroke="black" stroke-width="1.5" stroke-linecap="round" stroke-linejoin="round"/>
</svg>
