<svg width="20" height="14" viewBox="0 0 20 14" fill="none" xmlns="http://www.w3.org/2000/svg">
<path fill-rule="evenodd" clip-rule="evenodd" d="M2.36193 3.19526C3.95115 1.60605 6.44495 0 10 0C13.5551 0 16.0489 1.60605 17.6381 3.19526C18.4308 3.98795 19.0024 4.77948 19.3767 5.37396C19.5641 5.67172 19.7031 5.92156 19.7963 6.09952C19.8429 6.18854 19.8782 6.25972 19.9024 6.31007C19.9146 6.33526 19.9239 6.35524 19.9306 6.36967L19.9386 6.38709L19.9411 6.39259L19.9419 6.39453L19.9423 6.39529C19.9423 6.39529 19.9425 6.39591 19.3333 6.66667C19.9425 6.93743 19.9423 6.93805 19.9423 6.93805L19.9419 6.93881L19.9411 6.94074L19.9386 6.94624L19.9306 6.96366C19.9239 6.97809 19.9146 6.99808 19.9024 7.02326C19.8782 7.07361 19.8429 7.14479 19.7963 7.23382C19.7031 7.41177 19.5641 7.66161 19.3767 7.95937C19.0024 8.55386 18.4308 9.34539 17.6381 10.1381C16.0489 11.7273 13.5551 13.3333 10 13.3333C6.44495 13.3333 3.95115 11.7273 2.36193 10.1381C1.56925 9.34539 0.997648 8.55386 0.623345 7.95937C0.435866 7.66161 0.296931 7.41177 0.203716 7.23382C0.157085 7.14479 0.121819 7.07361 0.0975744 7.02326C0.0854497 6.99808 0.0760739 6.97809 0.0694041 6.96366L0.0614208 6.94624L0.0589394 6.94074L0.0580743 6.93881L0.0577354 6.93805C0.0577354 6.93805 0.057459 6.93743 0.666667 6.66667C0.057459 6.39591 0.0577354 6.39529 0.0577354 6.39529L0.0580743 6.39453L0.0589394 6.39259L0.0614208 6.38709L0.0694041 6.36967C0.0760739 6.35524 0.0854497 6.33526 0.0975744 6.31007C0.121819 6.25972 0.157085 6.18854 0.203716 6.09952C0.296931 5.92156 0.435866 5.67172 0.623345 5.37396C0.997648 4.77948 1.56925 3.98795 2.36193 3.19526ZM0.666667 6.66667L0.0574589 6.39591C-0.019153 6.56828 -0.019153 6.76505 0.0574589 6.93743L0.666667 6.66667ZM1.41208 6.66667C1.49051 6.81358 1.60314 7.01307 1.75166 7.24896C2.08568 7.77948 2.59742 8.48794 3.30474 9.19526C4.71552 10.606 6.88839 12 10 12C13.1116 12 15.2845 10.606 16.6953 9.19526C17.4026 8.48794 17.9143 7.77948 18.2483 7.24896C18.3969 7.01307 18.5095 6.81358 18.5879 6.66667C18.5095 6.51976 18.3969 6.32026 18.2483 6.08437C17.9143 5.55386 17.4026 4.84539 16.6953 4.13807C15.2845 2.72729 13.1116 1.33333 10 1.33333C6.88839 1.33333 4.71552 2.72729 3.30474 4.13807C2.59742 4.84539 2.08568 5.55386 1.75166 6.08437C1.60314 6.32026 1.49051 6.51976 1.41208 6.66667ZM19.3333 6.66667L19.9425 6.93743C20.0192 6.76505 20.0192 6.56828 19.9425 6.39591L19.3333 6.66667Z" fill="black"/>
<path fill-rule="evenodd" clip-rule="evenodd" d="M10 4C8.52724 4 7.33333 5.19391 7.33333 6.66667C7.33333 8.13943 8.52724 9.33333 10 9.33333C11.4728 9.33333 12.6667 8.13943 12.6667 6.66667C12.6667 5.19391 11.4728 4 10 4ZM6 6.66667C6 4.45753 7.79086 2.66667 10 2.66667C12.2091 2.66667 14 4.45753 14 6.66667C14 8.8758 12.2091 10.6667 10 10.6667C7.79086 10.6667 6 8.8758 6 6.66667Z" fill="black"/>
</svg>
