<svg width="18" height="20" viewBox="0 0 18 20" fill="none" xmlns="http://www.w3.org/2000/svg">
<path d="M15.2222 3H2.77778C1.79594 3 1 3.79594 1 4.77778V17.2222C1 18.2041 1.79594 19 2.77778 19H15.2222C16.2041 19 17 18.2041 17 17.2222V4.77778C17 3.79594 16.2041 3 15.2222 3Z" stroke="black" stroke-width="1.5" stroke-linecap="round" stroke-linejoin="round"/>
<path d="M12.5557 1V4.33333" stroke="black" stroke-width="1.5" stroke-linecap="round" stroke-linejoin="round"/>
<path d="M5.44434 1V4.33333" stroke="black" stroke-width="1.5" stroke-linecap="round" stroke-linejoin="round"/>
<path d="M1 7.66669H17" stroke="black" stroke-width="1.5" stroke-linecap="round" stroke-linejoin="round"/>
<rect x="4" y="9" width="2" height="2" fill="#D9D9D9"/>
<rect x="4" y="12" width="2" height="2" fill="black"/>
<rect x="8" y="9" width="2" height="2" fill="#D9D9D9"/>
<rect x="8" y="12" width="2" height="2" fill="#D9D9D9"/>
<rect x="12" y="9" width="2" height="2" fill="#D9D9D9"/>
<rect x="12" y="12" width="2" height="2" fill="#D9D9D9"/>
<rect x="12" y="15" width="2" height="2" fill="#D9D9D9"/>
<rect x="8" y="15" width="2" height="2" fill="#D9D9D9"/>
<rect x="4" y="15" width="2" height="2" fill="#D9D9D9"/>
</svg>
