<svg width="29" height="24" viewBox="0 0 29 24" fill="none" xmlns="http://www.w3.org/2000/svg">
<path d="M9.50003 13.5C9.49659 14.8199 9.80496 16.1219 10.4 17.3C11.1056 18.7118 12.1903 19.8992 13.5326 20.7293C14.8749 21.5594 16.4218 21.9994 18 22C19.3199 22.0034 20.6219 21.6951 21.8 21.1L27.5 23L25.6 17.3C26.1951 16.1219 26.5034 14.8199 26.5 13.5C26.4994 11.9218 26.0594 10.3749 25.2293 9.03257C24.3992 7.69027 23.2118 6.60559 21.8 5.90003C20.6219 5.30496 19.3199 4.99659 18 5.00003H17.5C15.4157 5.11502 13.447 5.99479 11.9709 7.47088C10.4948 8.94698 9.61502 10.9157 9.50003 13V13.5Z" fill="#386BF6" stroke="#386BF6" stroke-width="2" stroke-linecap="round" stroke-linejoin="round"/>
<path d="M19.5 9.97224C19.5036 11.3654 19.1781 12.7398 18.55 13.9833C17.8052 15.4735 16.6603 16.7269 15.2434 17.6031C13.8265 18.4794 12.1937 18.9438 10.5278 18.9444C9.13457 18.9481 7.76022 18.6226 6.51666 17.9944L0.5 20L2.50555 13.9833C1.87743 12.7398 1.55192 11.3654 1.55555 9.97224C1.5562 8.30632 2.02064 6.67348 2.89687 5.2566C3.77309 3.83973 5.02648 2.69479 6.51666 1.95003C7.76022 1.3219 9.13457 0.996398 10.5278 1.00003H11.0555C13.2557 1.12141 15.3337 2.05005 16.8918 3.60815C18.4499 5.16626 19.3786 7.24432 19.5 9.44446V9.97224Z" fill="#386BF6"/>
<path d="M19.5 9.97224C19.5036 11.3654 19.1781 12.7398 18.55 13.9833C17.8052 15.4735 16.6603 16.7269 15.2434 17.6031C13.8265 18.4794 12.1937 18.9438 10.5278 18.9444C9.13457 18.9481 7.76022 18.6226 6.51666 17.9944L0.5 20L2.50555 13.9833C1.87743 12.7398 1.55192 11.3654 1.55555 9.97224C1.5562 8.30632 2.02064 6.67348 2.89687 5.2566C3.77309 3.83973 5.02648 2.69479 6.51666 1.95003C7.76022 1.3219 9.13457 0.996398 10.5278 1.00003H11.0555C13.2557 1.12141 15.3337 2.05005 16.8918 3.60815C18.4499 5.16626 19.3786 7.24432 19.5 9.44446V9.97224Z" fill="#386BF6" fill-opacity="0.2"/>
<path d="M19.5 9.97224C19.5036 11.3654 19.1781 12.7398 18.55 13.9833C17.8052 15.4735 16.6603 16.7269 15.2434 17.6031C13.8265 18.4794 12.1937 18.9438 10.5278 18.9444C9.13457 18.9481 7.76022 18.6226 6.51666 17.9944L0.5 20L2.50555 13.9833C1.87743 12.7398 1.55192 11.3654 1.55555 9.97224C1.5562 8.30632 2.02064 6.67348 2.89687 5.2566C3.77309 3.83973 5.02648 2.69479 6.51666 1.95003C7.76022 1.3219 9.13457 0.996398 10.5278 1.00003H11.0555C13.2557 1.12141 15.3337 2.05005 16.8918 3.60815C18.4499 5.16626 19.3786 7.24432 19.5 9.44446V9.97224Z" stroke="white" stroke-linecap="round" stroke-linejoin="round"/>
</svg>
