<svg width="29" height="27" viewBox="0 0 29 27" fill="none" xmlns="http://www.w3.org/2000/svg">
<path fill-rule="evenodd" clip-rule="evenodd" d="M10.5124 2.99023C8.56402 2.86843 6.63816 3.46216 5.09656 4.65992C3.55495 5.85769 2.50367 7.57707 2.14016 9.49515C1.77664 11.4132 2.1259 13.398 3.12234 15.0768C3.26268 15.3132 3.29948 15.597 3.22409 15.8614L2.46059 18.5391L5.13821 17.7756C5.40261 17.7002 5.6864 17.737 5.92283 17.8773C7.6016 18.8737 9.58642 19.223 11.5045 18.8595C13.4226 18.496 15.142 17.4447 16.3397 15.9031C17.5375 14.3615 18.1312 12.4356 18.0094 10.4872C17.8876 8.53878 17.0586 6.70186 15.6782 5.32143C14.2978 3.941 12.4609 3.11204 10.5124 2.99023ZM3.86948 3.08059C5.79589 1.58386 8.20246 0.841921 10.6372 0.994129C13.072 1.14634 15.3674 2.18221 17.0924 3.90721C18.8174 5.63221 19.8533 7.92765 20.0055 10.3624C20.1577 12.7972 19.4158 15.2038 17.9191 17.1302C16.4223 19.0566 14.2738 20.3703 11.8769 20.8245C9.62444 21.2514 7.29834 20.8917 5.28519 19.8134L2.57413 20.5864L2.57057 20.5874C2.27135 20.6715 1.95511 20.6744 1.65437 20.5958C1.35364 20.5172 1.07927 20.3599 0.859486 20.1402C0.639696 19.9204 0.48241 19.646 0.403804 19.3453C0.325199 19.0445 0.328112 18.7283 0.412241 18.4291L0.413247 18.4255L1.18628 15.7145C0.107972 13.7013 -0.251753 11.3752 0.175135 9.12274C0.629387 6.72588 1.94308 4.57733 3.86948 3.08059Z" fill="#9DB2CE"/>
<path fill-rule="evenodd" clip-rule="evenodd" d="M17.4889 7.95981C17.5178 7.40828 17.9884 6.98465 18.5399 7.01361C20.2579 7.1038 21.9235 7.63623 23.3752 8.55931C24.827 9.48239 26.0157 10.7648 26.8261 12.2823C27.6366 13.7998 28.0413 15.5009 28.0011 17.2208C27.9643 18.7936 27.5566 20.3332 26.8139 21.7153L27.5877 24.4291C27.6718 24.7283 27.6747 25.0445 27.5961 25.3453C27.5175 25.646 27.3602 25.9204 27.1404 26.1402C26.9206 26.3599 26.6463 26.5172 26.3455 26.5958C26.0448 26.6744 25.7285 26.6715 25.4293 26.5874L25.4258 26.5864L22.7151 25.8135C21.5438 26.4419 20.2575 26.8309 18.9312 26.956C17.4586 27.0949 15.9735 26.9049 14.5832 26.3998C13.1929 25.8948 11.9321 25.0872 10.892 24.0354C9.85192 22.9837 9.05841 21.714 8.56884 20.3182C8.38605 19.797 8.66035 19.2264 9.18151 19.0436C9.70266 18.8608 10.2733 19.1351 10.4561 19.6563C10.8477 20.7726 11.4823 21.788 12.3141 22.6291C13.1459 23.4702 14.1542 24.1161 15.2661 24.52C16.378 24.924 17.5657 25.0759 18.7434 24.9648C19.9212 24.8537 21.0596 24.4824 22.0763 23.8777L22.5875 24.7372L22.8617 23.7756L25.5393 24.5391L24.7758 21.8614C24.7003 21.5965 24.7374 21.3121 24.8784 21.0754C25.5826 19.8934 25.9695 18.5496 26.0016 17.1741C26.0338 15.7986 25.7101 14.4381 25.0619 13.2245C24.4138 12.0109 23.4631 10.9853 22.3021 10.247C21.1411 9.5088 19.809 9.08299 18.4351 9.01086C17.8835 8.9819 17.4599 8.51133 17.4889 7.95981Z" fill="#9DB2CE"/>
</svg>
