<svg width="29" height="27" viewBox="0 0 29 27" fill="none" xmlns="http://www.w3.org/2000/svg">
<path d="M22.1889 10.4561C20.8029 9.69292 17.4603 8.40346 15.0281 8.83923C14.7011 8.89784 14.3981 9.04692 14.1956 9.28518C14.0116 9.50052 13.8785 9.79612 14.0767 10.1147C14.4731 10.7517 15.9582 10.9378 15.8025 11.8858C15.6468 12.8337 15.7685 12.8949 16.0616 13.0656C16.0616 13.0656 17.4773 13.8582 17.9941 14.4787C18.5122 15.1005 19.1847 15.3171 19.6675 15.038C20.1502 14.759 20.2366 14.0901 19.6675 13.6403C19.0983 13.1892 17.2168 11.7762 17.2168 11.7762C17.2168 11.7762 18.9596 12.6299 19.6165 13.1892C20.272 13.7486 21.0832 14.4634 21.7571 13.997C22.4296 13.5307 22.0856 12.7076 21.2913 12.1954C20.4971 11.6832 17.8567 10.1134 17.8567 10.1134C17.8567 10.1134 21.4471 11.7596 21.8958 12.1482C22.3446 12.5369 22.8104 12.5993 23.2932 12.2412C23.7759 11.8858 23.6556 11.264 22.1889 10.4561Z" fill="#1A34AA"/>
<path d="M19.2682 24.7576H14.0031C7.3944 24.7576 2.03725 19.9361 2.03725 13.9883V7.60729H2.01177V7.37412C2.01177 6.68607 2.88669 6.29618 3.49404 6.7141L3.73897 6.88229C3.73897 6.88229 11.9389 13.1652 14.8582 12.6555C14.8582 12.6555 15.8096 12.3 15.1258 11.5776C14.442 10.8551 12.8351 10.6551 13.4679 9.48541C14.1008 8.317 16.2145 7.72069 19.4523 8.72219C22.69 9.72241 22.6419 10.2372 23.3668 9.78357C24.0916 9.32997 23.439 8.50431 21.6028 7.65571C19.7665 6.80712 17.0115 6.39429 14.7152 6.48093C12.4189 6.56757 10.3406 6.41595 8.81864 4.80668C7.70304 3.62808 6.53647 1.86591 5.99141 1.00712C5.7932 0.693673 5.42228 0.5 5.02163 0.5H1.19205C0.533733 0.5 0 0.98036 0 1.57285V9.6931V13.9883C0 20.9491 6.26889 26.5911 14.0031 26.5911H21.304C21.304 25.5781 20.3923 24.7576 19.2682 24.7576Z" fill="#1A34AA"/>
<path d="M6.80967 16.6335C8.19568 17.3967 11.5382 18.6861 13.9705 18.2504C14.2975 18.1918 14.6005 18.0427 14.8029 17.8044C14.987 17.5891 15.1201 17.2935 14.9219 16.9749C14.5255 16.3379 13.0403 16.1518 13.1961 15.2038C13.3518 14.2559 13.2301 14.1947 12.937 14.024C12.937 14.024 11.5213 13.2314 11.0045 12.6109C10.4863 11.9891 9.81387 11.7725 9.3311 12.0516C8.84834 12.3306 8.76198 12.9995 9.3311 13.4493C9.90023 13.9004 11.7818 15.3134 11.7818 15.3134C11.7818 15.3134 10.039 14.4597 9.38207 13.9004C8.72517 13.341 7.91537 12.6262 7.24147 13.0926C6.56758 13.5589 6.91302 14.382 7.70725 14.8942C8.50148 15.4064 11.1418 16.9762 11.1418 16.9762C11.1418 16.9762 7.55152 15.33 7.10273 14.9414C6.65394 14.5527 6.18816 14.4903 5.7054 14.8484C5.22121 15.2038 5.34297 15.8256 6.80967 16.6335Z" fill="#3D96FF"/>
<path d="M28.9972 17.398V13.1028C28.9972 6.142 22.7283 0.5 14.9941 0.5H7.69313C7.69313 1.51169 8.60487 2.33225 9.72897 2.33225H14.9941C21.6028 2.33225 26.9599 7.15369 26.9599 13.1015V19.4825H26.9854V19.7157C26.9854 20.4037 26.1105 20.7936 25.5031 20.3757L25.2582 20.2075C25.2582 20.2075 17.0582 13.9246 14.139 14.4343C14.139 14.4343 13.1876 14.7898 13.8714 15.5122C14.5552 16.2347 16.1621 16.4347 15.5292 17.6044C14.8964 18.7728 12.7827 19.3691 9.54492 18.3676C6.30712 17.3674 6.35526 16.8526 5.6304 17.3062C4.90554 17.7598 5.5582 18.5855 7.39441 19.4341C9.23063 20.2827 11.9857 20.6955 14.282 20.6089C16.5783 20.5222 18.6566 20.6739 20.1785 22.2831C21.2941 23.4617 22.4607 25.2239 23.0058 26.0827C23.204 26.3961 23.5749 26.5898 23.9755 26.5898H27.808C28.4663 26.5898 29 26.1094 29 25.517L28.9972 17.398Z" fill="#3D96FF"/>
</svg>
